<svg width="400" height="600" xmlns="http://www.w3.org/2000/svg">
  <rect width="400" height="600" fill="#f0f0f0" stroke="#47C5FB" stroke-width="4"/>
  <text x="200" y="50" text-anchor="middle" font-family="Arial" font-size="20" fill="#47C5FB" font-weight="bold">
    Étape 1: Bouton Partage
  </text>
  
  <!-- Safari mockup -->
  <rect x="50" y="100" width="300" height="450" rx="20" fill="white" stroke="#ddd" stroke-width="2"/>
  
  <!-- Safari toolbar -->
  <rect x="60" y="110" width="280" height="40" fill="#f8f8f8"/>
  <circle cx="80" r="6" cy="130" fill="#ff5f57"/>
  <circle cx="100" r="6" cy="130" fill="#ffbd2e"/>
  <circle cx="120" r="6" cy="130" fill="#28ca42"/>
  
  <!-- URL bar -->
  <rect x="160" y="120" width="120" height="20" rx="10" fill="white" stroke="#ddd"/>
  <text x="220" y="133" text-anchor="middle" font-family="Arial" font-size="8" fill="#666">
    dailygrowth.app
  </text>
  
  <!-- Share button highlighted -->
  <rect x="300" y="120" width="30" height="20" rx="4" fill="#47C5FB" stroke="#47C5FB" stroke-width="2"/>
  <text x="315" y="132" text-anchor="middle" font-family="Arial" font-size="10" fill="white" font-weight="bold">
    📤
  </text>
  
  <!-- Arrow pointing to share button -->
  <path d="M280 160 L300 140 L290 140 L290 120 L310 120 L310 140 L300 140 Z" fill="#ff4444"/>
  <text x="250" y="175" font-family="Arial" font-size="12" fill="#ff4444" font-weight="bold">
    Cliquez ici !
  </text>
  
  <!-- App content area -->
  <rect x="70" y="170" width="260" height="300" fill="#47C5FB" opacity="0.1"/>
  <text x="200" y="220" text-anchor="middle" font-family="Arial" font-size="16" fill="#47C5FB" font-weight="bold">
    DailyGrowth
  </text>
  <text x="200" y="250" text-anchor="middle" font-family="Arial" font-size="12" fill="#333">
    Votre compagnon quotidien
  </text>
  <text x="200" y="270" text-anchor="middle" font-family="Arial" font-size="12" fill="#333">
    de développement personnel
  </text>
  
  <text x="200" y="520" text-anchor="middle" font-family="Arial" font-size="10" fill="#666">
    Remplacez par votre image WhatsApp
  </text>
  <text x="200" y="535" text-anchor="middle" font-family="Arial" font-size="10" fill="#666">
    Sept 16, 2025
  </text>
</svg>