<svg width="400" height="600" xmlns="http://www.w3.org/2000/svg">
  <rect width="400" height="600" fill="#f0f0f0" stroke="#47C5FB" stroke-width="4"/>
  <text x="200" y="50" text-anchor="middle" font-family="Arial" font-size="20" fill="#47C5FB" font-weight="bold">
    Étape 2: Sur l'écran d'accueil
  </text>
  
  <!-- Share menu mockup -->
  <rect x="50" y="100" width="300" height="450" rx="20" fill="white" stroke="#ddd" stroke-width="2"/>
  
  <!-- Share menu header -->
  <rect x="60" y="120" width="280" height="50" fill="#f8f8f8"/>
  <text x="200" y="140" text-anchor="middle" font-family="Arial" font-size="14" fill="#333" font-weight="bold">
    Options de partage
  </text>
  <text x="200" y="155" text-anchor="middle" font-family="Arial" font-size="10" fill="#666">
    dailygrowth.app
  </text>
  
  <!-- Share options -->
  <g transform="translate(0, 180)">
    <!-- Messages option -->
    <rect x="70" y="0" width="80" height="60" rx="8" fill="#f0f0f0"/>
    <circle cx="110" cy="20" r="12" fill="#34C759"/>
    <text x="110" y="45" text-anchor="middle" font-family="Arial" font-size="8" fill="#333">Messages</text>
    
    <!-- Mail option -->
    <rect x="160" y="0" width="80" height="60" rx="8" fill="#f0f0f0"/>
    <circle cx="200" cy="20" r="12" fill="#007AFF"/>
    <text x="200" y="45" text-anchor="middle" font-family="Arial" font-size="8" fill="#333">Mail</text>
    
    <!-- Add to Home Screen - HIGHLIGHTED -->
    <rect x="250" y="0" width="80" height="60" rx="8" fill="#47C5FB" stroke="#47C5FB" stroke-width="3"/>
    <circle cx="290" cy="20" r="12" fill="white"/>
    <text x="290" y="25" text-anchor="middle" font-family="Arial" font-size="10" fill="#47C5FB" font-weight="bold">🏠</text>
    <text x="290" y="45" text-anchor="middle" font-family="Arial" font-size="8" fill="white" font-weight="bold">Sur l'écran</text>
    <text x="290" y="53" text-anchor="middle" font-family="Arial" font-size="8" fill="white" font-weight="bold">d'accueil</text>
  </g>
  
  <!-- Arrow pointing to home screen option -->
  <path d="M330 260 L350 240 L340 240 L340 220 L360 220 L360 240 L350 240 Z" fill="#ff4444"/>
  <text x="280" y="280" font-family="Arial" font-size="12" fill="#ff4444" font-weight="bold">
    Choisissez cette option !
  </text>
  
  <!-- Other options -->
  <g transform="translate(0, 300)">
    <rect x="70" y="0" width="80" height="60" rx="8" fill="#f0f0f0"/>
    <text x="110" y="35" text-anchor="middle" font-family="Arial" font-size="8" fill="#333">Copier</text>
    
    <rect x="160" y="0" width="80" height="60" rx="8" fill="#f0f0f0"/>
    <text x="200" y="35" text-anchor="middle" font-family="Arial" font-size="8" fill="#333">AirDrop</text>
    
    <rect x="250" y="0" width="80" height="60" rx="8" fill="#f0f0f0"/>
    <text x="290" y="35" text-anchor="middle" font-family="Arial" font-size="8" fill="#333">Plus...</text>
  </g>
  
  <text x="200" y="520" text-anchor="middle" font-family="Arial" font-size="10" fill="#666">
    Remplacez par votre image WhatsApp
  </text>
  <text x="200" y="535" text-anchor="middle" font-family="Arial" font-size="10" fill="#666">
    Sept 17, 2025
  </text>
</svg>